# xmcd CD database file
#
# Track frame offsets:
#	150
#	37013
#	67958
#	91391
#	118891
#	138580
#	166299
#	193878
#	225312
#
# Disc length: 3209 seconds
#
# Revision: 0
# Processed by: cddbd v1.5.2PL0 Copyright (c) Steve Scherf et al.
# Submitted via: CDex 1.60beta1
#
DISCID=7b0c8709
DTITLE=Erich Kleinschuster Sextet - Art Farmer, Jimmy Heath, Slide Hampton Volume 2
DYEAR=2007
DGENRE=Jazz
TTITLE0=On The Trail
TTITLE1=One For Juan
TTITLE2=When Sunny Gets Blue
TTITLE3=Project S
TTITLE4=I Waited For You
TTITLE5=A Time And A Place
TTITLE6=Blue Bossa
TTITLE7=It Might As Well Be Spring
TTITLE8=Alisarb
EXTD=YEAR: 2007
EXTT0=
EXTT1=
EXTT2=
EXTT3=
EXTT4=
EXTT5=
EXTT6=
EXTT7=
EXTT8=
PLAYORDER=
